<mxfile host="Electron" scale="1" border="2" modified="2023-08-06T14:13:35.263Z" agent="Mozilla/5.0 (Macintosh; Intel Mac OS X 10_15_7) AppleWebKit/537.36 (KHTML, like Gecko) draw.io/21.6.5 Chrome/114.0.5735.243 Electron/25.3.1 Safari/537.36" etag="tnc2ucN8GZLvlnFPhtbw" version="21.6.5" type="device">
  <diagram id="yu0OQrqvoiVsUhACBv0z" name="Page-1">
    <mxGraphModel dx="2052" dy="3140" grid="1" gridSize="10" guides="1" tooltips="1" connect="1" arrows="1" fold="1" page="1" pageScale="1" pageWidth="1169" pageHeight="827" background="#FFFFFF" math="0" shadow="0">
      <root>
        <mxCell id="0" />
        <mxCell id="1" parent="0" />
        <mxCell id="193" style="edgeStyle=none;html=1;exitX=1;exitY=0.5;exitDx=0;exitDy=0;" parent="1" source="192" edge="1">
          <mxGeometry relative="1" as="geometry">
            <mxPoint x="986" y="-769" as="targetPoint" />
          </mxGeometry>
        </mxCell>
        <mxCell id="188" style="edgeStyle=none;html=1;exitX=1;exitY=0.5;exitDx=0;exitDy=0;" parent="1" source="184" edge="1">
          <mxGeometry relative="1" as="geometry">
            <mxPoint x="986" y="-929" as="targetPoint" />
          </mxGeometry>
        </mxCell>
        <mxCell id="187" style="edgeStyle=none;html=1;" parent="1" source="184" edge="1">
          <mxGeometry relative="1" as="geometry">
            <mxPoint x="609" y="-929" as="targetPoint" />
          </mxGeometry>
        </mxCell>
        <mxCell id="109" style="edgeStyle=elbowEdgeStyle;html=1;startArrow=none;endArrow=classic;exitX=0.5;exitY=1;exitDx=0;exitDy=0;entryX=1;entryY=0.5;entryDx=0;entryDy=0;endFill=1;" parent="1" source="2" target="60" edge="1">
          <mxGeometry relative="1" as="geometry">
            <Array as="points">
              <mxPoint x="1211" y="-864" />
            </Array>
          </mxGeometry>
        </mxCell>
        <mxCell id="108" style="edgeStyle=elbowEdgeStyle;html=1;startArrow=none;endArrow=block;exitX=0.5;exitY=1;exitDx=0;exitDy=0;entryX=0;entryY=0.5;entryDx=0;entryDy=0;startFill=0;" parent="1" source="34" target="60" edge="1">
          <mxGeometry relative="1" as="geometry">
            <Array as="points">
              <mxPoint x="375" y="-879" />
            </Array>
          </mxGeometry>
        </mxCell>
        <mxCell id="146" style="edgeStyle=orthogonalEdgeStyle;curved=1;html=1;strokeColor=default;" parent="1" source="183" target="145" edge="1">
          <mxGeometry relative="1" as="geometry">
            <mxPoint x="1030" y="-1550.5" as="sourcePoint" />
          </mxGeometry>
        </mxCell>
        <mxCell id="150" value="" style="edgeStyle=orthogonalEdgeStyle;curved=1;html=1;entryX=0.5;entryY=0;entryDx=0;entryDy=0;strokeColor=default;" parent="1" source="183" target="149" edge="1">
          <mxGeometry relative="1" as="geometry">
            <mxPoint x="960" y="-1550.5" as="sourcePoint" />
          </mxGeometry>
        </mxCell>
        <mxCell id="176" style="edgeStyle=orthogonalEdgeStyle;curved=1;html=1;entryX=0.5;entryY=0;entryDx=0;entryDy=0;" parent="1" source="183" target="172" edge="1">
          <mxGeometry relative="1" as="geometry">
            <mxPoint x="960" y="-1550.5" as="sourcePoint" />
          </mxGeometry>
        </mxCell>
        <mxCell id="177" style="edgeStyle=orthogonalEdgeStyle;curved=1;html=1;" parent="1" source="183" target="147" edge="1">
          <mxGeometry relative="1" as="geometry">
            <mxPoint x="960" y="-1550.5" as="sourcePoint" />
          </mxGeometry>
        </mxCell>
        <mxCell id="129" value="Mean Average Precision" style="rounded=1;whiteSpace=wrap;html=1;fontSize=14;" parent="1" vertex="1">
          <mxGeometry x="605" y="-609" width="390" height="50" as="geometry" />
        </mxCell>
        <mxCell id="130" style="edgeStyle=none;html=1;exitX=0.5;exitY=1;exitDx=0;exitDy=0;entryX=0.113;entryY=0;entryDx=0;entryDy=0;strokeColor=none;entryPerimeter=0;" parent="1" source="83" target="129" edge="1">
          <mxGeometry relative="1" as="geometry" />
        </mxCell>
        <mxCell id="161" style="edgeStyle=orthogonalEdgeStyle;curved=1;html=1;exitX=0;exitY=0.5;exitDx=0;exitDy=0;entryX=0.5;entryY=0;entryDx=0;entryDy=0;dashed=1;strokeColor=default;" parent="1" source="145" target="5" edge="1">
          <mxGeometry relative="1" as="geometry" />
        </mxCell>
        <mxCell id="162" style="edgeStyle=orthogonalEdgeStyle;curved=1;html=1;exitX=0;exitY=0.75;exitDx=0;exitDy=0;entryX=0.5;entryY=0;entryDx=0;entryDy=0;dashed=1;strokeColor=default;" parent="1" source="145" target="24" edge="1">
          <mxGeometry relative="1" as="geometry" />
        </mxCell>
        <mxCell id="163" style="edgeStyle=orthogonalEdgeStyle;curved=1;html=1;exitX=0;exitY=1;exitDx=0;exitDy=0;entryX=0.5;entryY=0;entryDx=0;entryDy=0;dashed=1;strokeColor=default;" parent="1" source="145" target="15" edge="1">
          <mxGeometry relative="1" as="geometry">
            <Array as="points">
              <mxPoint x="1067" y="-1399" />
            </Array>
          </mxGeometry>
        </mxCell>
        <mxCell id="164" style="edgeStyle=orthogonalEdgeStyle;curved=1;html=1;exitX=0.25;exitY=1;exitDx=0;exitDy=0;entryX=0.5;entryY=0;entryDx=0;entryDy=0;dashed=1;strokeColor=default;" parent="1" source="145" target="16" edge="1">
          <mxGeometry relative="1" as="geometry">
            <Array as="points">
              <mxPoint x="1162" y="-1399" />
            </Array>
          </mxGeometry>
        </mxCell>
        <mxCell id="166" style="edgeStyle=orthogonalEdgeStyle;curved=1;html=1;exitX=1;exitY=0.5;exitDx=0;exitDy=0;entryX=0.5;entryY=0;entryDx=0;entryDy=0;dashed=1;strokeColor=default;" parent="1" source="145" target="20" edge="1">
          <mxGeometry relative="1" as="geometry" />
        </mxCell>
        <mxCell id="167" style="edgeStyle=orthogonalEdgeStyle;curved=1;html=1;exitX=1;exitY=0.75;exitDx=0;exitDy=0;entryX=0.5;entryY=0;entryDx=0;entryDy=0;dashed=1;strokeColor=default;" parent="1" source="145" target="19" edge="1">
          <mxGeometry relative="1" as="geometry" />
        </mxCell>
        <mxCell id="168" style="edgeStyle=orthogonalEdgeStyle;curved=1;html=1;exitX=1;exitY=1;exitDx=0;exitDy=0;entryX=0.5;entryY=0;entryDx=0;entryDy=0;dashed=1;strokeColor=default;" parent="1" source="145" target="18" edge="1">
          <mxGeometry relative="1" as="geometry">
            <Array as="points">
              <mxPoint x="1350" y="-1399" />
            </Array>
          </mxGeometry>
        </mxCell>
        <mxCell id="169" style="edgeStyle=orthogonalEdgeStyle;curved=1;html=1;exitX=0.75;exitY=1;exitDx=0;exitDy=0;entryX=0.5;entryY=0;entryDx=0;entryDy=0;dashed=1;strokeColor=default;" parent="1" source="145" target="17" edge="1">
          <mxGeometry relative="1" as="geometry">
            <Array as="points">
              <mxPoint x="1260" y="-1399" />
            </Array>
          </mxGeometry>
        </mxCell>
        <mxCell id="145" value="Abstract" style="rounded=1;whiteSpace=wrap;html=1;fontSize=14;" parent="1" vertex="1">
          <mxGeometry x="1119" y="-1449" width="184" height="50" as="geometry" />
        </mxCell>
        <mxCell id="160" style="edgeStyle=orthogonalEdgeStyle;curved=1;html=1;exitX=0.5;exitY=1;exitDx=0;exitDy=0;entryX=0.5;entryY=0;entryDx=0;entryDy=0;dashed=1;strokeColor=default;" parent="1" source="147" target="42" edge="1">
          <mxGeometry relative="1" as="geometry">
            <Array as="points">
              <mxPoint x="689" y="-1400" />
              <mxPoint x="689" y="-1279" />
            </Array>
          </mxGeometry>
        </mxCell>
        <mxCell id="147" value="Cited Papers" style="rounded=1;whiteSpace=wrap;html=1;fontSize=14;" parent="1" vertex="1">
          <mxGeometry x="613" y="-1450" width="184" height="50" as="geometry" />
        </mxCell>
        <mxCell id="154" style="edgeStyle=orthogonalEdgeStyle;curved=1;html=1;exitX=0.25;exitY=1;exitDx=0;exitDy=0;entryX=0.5;entryY=0;entryDx=0;entryDy=0;dashed=1;strokeColor=default;" parent="1" source="149" target="36" edge="1">
          <mxGeometry relative="1" as="geometry">
            <Array as="points">
              <mxPoint x="90" y="-1399" />
              <mxPoint x="90" y="-1279" />
            </Array>
          </mxGeometry>
        </mxCell>
        <mxCell id="155" style="edgeStyle=orthogonalEdgeStyle;curved=1;html=1;exitX=0.5;exitY=1;exitDx=0;exitDy=0;entryX=0.5;entryY=0;entryDx=0;entryDy=0;dashed=1;strokeColor=default;" parent="1" source="149" target="49" edge="1">
          <mxGeometry relative="1" as="geometry">
            <Array as="points">
              <mxPoint x="235" y="-1399" />
            </Array>
          </mxGeometry>
        </mxCell>
        <mxCell id="156" style="edgeStyle=orthogonalEdgeStyle;curved=1;html=1;exitX=0.75;exitY=1;exitDx=0;exitDy=0;dashed=1;strokeColor=default;entryX=0.5;entryY=0;entryDx=0;entryDy=0;" parent="1" source="149" target="38" edge="1">
          <mxGeometry relative="1" as="geometry">
            <Array as="points">
              <mxPoint x="390" y="-1399" />
            </Array>
          </mxGeometry>
        </mxCell>
        <mxCell id="149" value="Metadata" style="rounded=1;whiteSpace=wrap;html=1;fontSize=14;" parent="1" vertex="1">
          <mxGeometry x="143" y="-1449" width="184" height="50" as="geometry" />
        </mxCell>
        <mxCell id="2" value="Language Recommender" style="swimlane;startSize=20;horizontal=1;containerType=tree;newEdgeStyle={&quot;edgeStyle&quot;:&quot;elbowEdgeStyle&quot;,&quot;startArrow&quot;:&quot;none&quot;,&quot;endArrow&quot;:&quot;none&quot;};fontSize=15;" parent="1" vertex="1">
          <mxGeometry x="830" y="-1319" width="760" height="190" as="geometry">
            <mxRectangle x="200" y="260" width="90" height="30" as="alternateBounds" />
          </mxGeometry>
        </mxCell>
        <mxCell id="26" style="edgeStyle=elbowEdgeStyle;html=1;startArrow=none;endArrow=none;exitX=0.5;exitY=1;exitDx=0;exitDy=0;entryX=0;entryY=0.5;entryDx=0;entryDy=0;" parent="2" source="5" target="25" edge="1">
          <mxGeometry relative="1" as="geometry">
            <Array as="points">
              <mxPoint x="50" y="140" />
            </Array>
          </mxGeometry>
        </mxCell>
        <UserObject label="TF-IDF" treeRoot="1" id="5">
          <mxCell style="whiteSpace=wrap;html=1;align=center;treeFolding=1;treeMoving=1;newEdgeStyle={&quot;edgeStyle&quot;:&quot;elbowEdgeStyle&quot;,&quot;startArrow&quot;:&quot;none&quot;,&quot;endArrow&quot;:&quot;none&quot;};rounded=1;fontSize=14;" parent="2" vertex="1">
            <mxGeometry x="10" y="40" width="80" height="30" as="geometry" />
          </mxCell>
        </UserObject>
        <mxCell id="28" style="edgeStyle=elbowEdgeStyle;html=1;startArrow=none;endArrow=none;exitX=0.5;exitY=1;exitDx=0;exitDy=0;entryX=0.116;entryY=0;entryDx=0;entryDy=0;entryPerimeter=0;" parent="2" source="15" target="25" edge="1">
          <mxGeometry relative="1" as="geometry">
            <Array as="points">
              <mxPoint x="237" y="109" />
            </Array>
          </mxGeometry>
        </mxCell>
        <UserObject label="Word2Vec" treeRoot="1" id="15">
          <mxCell style="whiteSpace=wrap;html=1;align=center;treeFolding=1;treeMoving=1;newEdgeStyle={&quot;edgeStyle&quot;:&quot;elbowEdgeStyle&quot;,&quot;startArrow&quot;:&quot;none&quot;,&quot;endArrow&quot;:&quot;none&quot;};rounded=1;fontSize=14;" parent="2" vertex="1">
            <mxGeometry x="197" y="40" width="80" height="30" as="geometry" />
          </mxCell>
        </UserObject>
        <mxCell id="29" style="edgeStyle=elbowEdgeStyle;html=1;startArrow=none;endArrow=none;exitX=0.5;exitY=1;exitDx=0;exitDy=0;" parent="2" source="16" target="25" edge="1">
          <mxGeometry relative="1" as="geometry">
            <Array as="points">
              <mxPoint x="332" y="70" />
            </Array>
          </mxGeometry>
        </mxCell>
        <UserObject label="FastText" treeRoot="1" id="16">
          <mxCell style="whiteSpace=wrap;html=1;align=center;treeFolding=1;treeMoving=1;newEdgeStyle={&quot;edgeStyle&quot;:&quot;elbowEdgeStyle&quot;,&quot;startArrow&quot;:&quot;none&quot;,&quot;endArrow&quot;:&quot;none&quot;};rounded=1;fontSize=14;" parent="2" vertex="1">
            <mxGeometry x="292" y="40" width="80" height="30" as="geometry" />
          </mxCell>
        </UserObject>
        <mxCell id="30" style="edgeStyle=elbowEdgeStyle;html=1;startArrow=none;endArrow=none;exitX=0.5;exitY=1;exitDx=0;exitDy=0;entryX=0.652;entryY=0;entryDx=0;entryDy=0;entryPerimeter=0;" parent="2" source="17" target="25" edge="1">
          <mxGeometry relative="1" as="geometry" />
        </mxCell>
        <UserObject label="GloVe" treeRoot="1" id="17">
          <mxCell style="whiteSpace=wrap;html=1;align=center;treeFolding=1;treeMoving=1;newEdgeStyle={&quot;edgeStyle&quot;:&quot;elbowEdgeStyle&quot;,&quot;startArrow&quot;:&quot;none&quot;,&quot;endArrow&quot;:&quot;none&quot;};rounded=1;fontSize=14;" parent="2" vertex="1">
            <mxGeometry x="390" y="40" width="80" height="30" as="geometry" />
          </mxCell>
        </UserObject>
        <mxCell id="31" style="edgeStyle=elbowEdgeStyle;html=1;startArrow=none;endArrow=none;exitX=0.5;exitY=1;exitDx=0;exitDy=0;entryX=0.871;entryY=0;entryDx=0;entryDy=0;entryPerimeter=0;" parent="2" source="18" target="25" edge="1">
          <mxGeometry relative="1" as="geometry">
            <Array as="points">
              <mxPoint x="520" y="119" />
            </Array>
          </mxGeometry>
        </mxCell>
        <UserObject label="BERT" treeRoot="1" id="18">
          <mxCell style="whiteSpace=wrap;html=1;align=center;treeFolding=1;treeMoving=1;newEdgeStyle={&quot;edgeStyle&quot;:&quot;elbowEdgeStyle&quot;,&quot;startArrow&quot;:&quot;none&quot;,&quot;endArrow&quot;:&quot;none&quot;};rounded=1;fontSize=14;" parent="2" vertex="1">
            <mxGeometry x="480" y="40" width="80" height="30" as="geometry" />
          </mxCell>
        </UserObject>
        <mxCell id="32" style="edgeStyle=elbowEdgeStyle;html=1;startArrow=none;endArrow=none;exitX=0.5;exitY=1;exitDx=0;exitDy=0;entryX=1;entryY=0.25;entryDx=0;entryDy=0;" parent="2" source="19" target="25" edge="1">
          <mxGeometry relative="1" as="geometry">
            <Array as="points">
              <mxPoint x="614" y="130" />
            </Array>
          </mxGeometry>
        </mxCell>
        <UserObject label="SciBERT" treeRoot="1" id="19">
          <mxCell style="whiteSpace=wrap;html=1;align=center;treeFolding=1;treeMoving=1;newEdgeStyle={&quot;edgeStyle&quot;:&quot;elbowEdgeStyle&quot;,&quot;startArrow&quot;:&quot;none&quot;,&quot;endArrow&quot;:&quot;none&quot;};rounded=1;fontSize=14;" parent="2" vertex="1">
            <mxGeometry x="574" y="40" width="80" height="30" as="geometry" />
          </mxCell>
        </UserObject>
        <UserObject label="Longformer" treeRoot="1" id="20">
          <mxCell style="whiteSpace=wrap;html=1;align=center;treeFolding=1;treeMoving=1;newEdgeStyle={&quot;edgeStyle&quot;:&quot;elbowEdgeStyle&quot;,&quot;startArrow&quot;:&quot;none&quot;,&quot;endArrow&quot;:&quot;none&quot;};rounded=1;fontSize=14;" parent="2" vertex="1">
            <mxGeometry x="670" y="40" width="80" height="30" as="geometry" />
          </mxCell>
        </UserObject>
        <mxCell id="27" style="edgeStyle=elbowEdgeStyle;html=1;startArrow=none;endArrow=none;exitX=0.5;exitY=1;exitDx=0;exitDy=0;entryX=0;entryY=0.25;entryDx=0;entryDy=0;" parent="2" source="24" target="25" edge="1">
          <mxGeometry relative="1" as="geometry">
            <Array as="points">
              <mxPoint x="140" y="120" />
            </Array>
          </mxGeometry>
        </mxCell>
        <UserObject label="BM25" treeRoot="1" id="24">
          <mxCell style="whiteSpace=wrap;html=1;align=center;treeFolding=1;treeMoving=1;newEdgeStyle={&quot;edgeStyle&quot;:&quot;elbowEdgeStyle&quot;,&quot;startArrow&quot;:&quot;none&quot;,&quot;endArrow&quot;:&quot;none&quot;};rounded=1;fontSize=14;" parent="2" vertex="1">
            <mxGeometry x="103" y="40" width="80" height="30" as="geometry" />
          </mxCell>
        </UserObject>
        <mxCell id="25" value="Choose One" style="rounded=1;whiteSpace=wrap;html=1;fontSize=14;" parent="2" vertex="1">
          <mxGeometry x="220" y="120" width="320" height="40" as="geometry" />
        </mxCell>
        <mxCell id="33" style="edgeStyle=elbowEdgeStyle;html=1;startArrow=none;endArrow=none;exitX=0.5;exitY=1;exitDx=0;exitDy=0;entryX=1;entryY=0.5;entryDx=0;entryDy=0;" parent="2" source="20" target="25" edge="1">
          <mxGeometry relative="1" as="geometry">
            <mxPoint x="530" y="140" as="targetPoint" />
            <Array as="points">
              <mxPoint x="710" y="140" />
            </Array>
          </mxGeometry>
        </mxCell>
        <mxCell id="60" value="Hybrid Recommender" style="swimlane;startSize=20;horizontal=1;containerType=tree;newEdgeStyle={&quot;edgeStyle&quot;:&quot;elbowEdgeStyle&quot;,&quot;startArrow&quot;:&quot;none&quot;,&quot;endArrow&quot;:&quot;none&quot;};fontSize=15;" parent="1" vertex="1">
          <mxGeometry x="433.5" y="-1049" width="733" height="370" as="geometry">
            <mxRectangle x="200" y="260" width="90" height="30" as="alternateBounds" />
          </mxGeometry>
        </mxCell>
        <mxCell id="199" style="edgeStyle=none;html=1;" parent="60" source="73" target="79" edge="1">
          <mxGeometry relative="1" as="geometry" />
        </mxCell>
        <mxCell id="73" value="Citation Recommender" style="rounded=1;whiteSpace=wrap;html=1;fontSize=14;" parent="60" vertex="1">
          <mxGeometry x="45" y="32.5" width="180" height="65" as="geometry" />
        </mxCell>
        <mxCell id="79" value="Candidate List" style="rounded=1;whiteSpace=wrap;html=1;fontSize=14;" parent="60" vertex="1">
          <mxGeometry x="45" y="149" width="180" height="22.5" as="geometry" />
        </mxCell>
        <mxCell id="202" style="edgeStyle=none;html=1;entryX=0.5;entryY=0;entryDx=0;entryDy=0;" parent="60" source="81" target="83" edge="1">
          <mxGeometry relative="1" as="geometry" />
        </mxCell>
        <mxCell id="81" value="Language Recommender" style="rounded=1;whiteSpace=wrap;html=1;fontSize=14;" parent="60" vertex="1">
          <mxGeometry x="45" y="189" width="180" height="65" as="geometry" />
        </mxCell>
        <mxCell id="97" value="Candidate List" style="rounded=1;whiteSpace=wrap;html=1;fontSize=14;" parent="60" vertex="1">
          <mxGeometry x="496.5" y="149" width="180" height="22.5" as="geometry" />
        </mxCell>
        <mxCell id="101" value="Final Recommendations" style="rounded=1;whiteSpace=wrap;html=1;fontSize=14;" parent="60" vertex="1">
          <mxGeometry x="496.5" y="316.25" width="180" height="22.5" as="geometry" />
        </mxCell>
        <mxCell id="203" style="edgeStyle=none;html=1;entryX=0.5;entryY=0;entryDx=0;entryDy=0;" parent="60" source="102" target="97" edge="1">
          <mxGeometry relative="1" as="geometry" />
        </mxCell>
        <mxCell id="102" value="Language Recommender" style="rounded=1;whiteSpace=wrap;html=1;fontSize=14;" parent="60" vertex="1">
          <mxGeometry x="496.5" y="32.5" width="180" height="65" as="geometry" />
        </mxCell>
        <mxCell id="184" value="select" style="rounded=1;whiteSpace=wrap;html=1;fontSize=14;" parent="60" vertex="1">
          <mxGeometry x="331.5" y="109" width="70" height="22.5" as="geometry" />
        </mxCell>
        <mxCell id="192" value="re-rank" style="rounded=1;whiteSpace=wrap;html=1;fontSize=14;" parent="60" vertex="1">
          <mxGeometry x="331.5" y="269" width="70" height="22.5" as="geometry" />
        </mxCell>
        <mxCell id="83" value="Final Recommendations" style="rounded=1;whiteSpace=wrap;html=1;fontSize=14;" parent="60" vertex="1">
          <mxGeometry x="45" y="316.25" width="180" height="22.5" as="geometry" />
        </mxCell>
        <mxCell id="204" style="edgeStyle=none;html=1;entryX=0.5;entryY=0;entryDx=0;entryDy=0;" parent="60" source="198" target="101" edge="1">
          <mxGeometry relative="1" as="geometry" />
        </mxCell>
        <mxCell id="198" value="Citation Recommender" style="rounded=1;whiteSpace=wrap;html=1;fontSize=14;" parent="60" vertex="1">
          <mxGeometry x="496.5" y="189" width="180" height="65" as="geometry" />
        </mxCell>
        <mxCell id="200" style="edgeStyle=none;html=1;entryX=0.5;entryY=0;entryDx=0;entryDy=0;" parent="60" source="79" target="81" edge="1">
          <mxGeometry relative="1" as="geometry">
            <mxPoint x="625" y="-421.5" as="sourcePoint" />
          </mxGeometry>
        </mxCell>
        <mxCell id="205" style="edgeStyle=none;html=1;entryX=0.5;entryY=0;entryDx=0;entryDy=0;exitX=0.5;exitY=1;exitDx=0;exitDy=0;" parent="60" source="97" target="198" edge="1">
          <mxGeometry relative="1" as="geometry">
            <mxPoint x="145" y="181.5" as="sourcePoint" />
            <mxPoint x="145" y="199" as="targetPoint" />
          </mxGeometry>
        </mxCell>
        <mxCell id="174" style="edgeStyle=orthogonalEdgeStyle;html=1;exitX=0.5;exitY=1;exitDx=0;exitDy=0;entryX=0.5;entryY=0;entryDx=0;entryDy=0;curved=1;dashed=1;" parent="1" source="172" target="40" edge="1">
          <mxGeometry relative="1" as="geometry">
            <Array as="points">
              <mxPoint x="537" y="-1400" />
            </Array>
          </mxGeometry>
        </mxCell>
        <mxCell id="172" value="Citing Papers" style="rounded=1;whiteSpace=wrap;html=1;fontSize=14;" parent="1" vertex="1">
          <mxGeometry x="384" y="-1449" width="184" height="49" as="geometry" />
        </mxCell>
        <mxCell id="34" value="Citation Recommender" style="swimlane;startSize=20;horizontal=1;containerType=tree;newEdgeStyle={&quot;edgeStyle&quot;:&quot;elbowEdgeStyle&quot;,&quot;startArrow&quot;:&quot;none&quot;,&quot;endArrow&quot;:&quot;none&quot;};fontSize=15;" parent="1" vertex="1">
          <mxGeometry x="10" y="-1319" width="760" height="190" as="geometry">
            <mxRectangle x="200" y="260" width="90" height="30" as="alternateBounds" />
          </mxGeometry>
        </mxCell>
        <mxCell id="53" style="edgeStyle=elbowEdgeStyle;html=1;startArrow=none;endArrow=none;exitX=0.5;exitY=1;exitDx=0;exitDy=0;entryX=0;entryY=0.5;entryDx=0;entryDy=0;" parent="34" source="36" target="52" edge="1">
          <mxGeometry relative="1" as="geometry">
            <Array as="points">
              <mxPoint x="80" y="109" />
            </Array>
          </mxGeometry>
        </mxCell>
        <UserObject label="Publication Date" treeRoot="1" id="36">
          <mxCell style="whiteSpace=wrap;html=1;align=center;treeFolding=1;treeMoving=1;newEdgeStyle={&quot;edgeStyle&quot;:&quot;elbowEdgeStyle&quot;,&quot;startArrow&quot;:&quot;none&quot;,&quot;endArrow&quot;:&quot;none&quot;};rounded=1;fontSize=14;" parent="34" vertex="1">
            <mxGeometry x="9" y="40" width="140" height="30" as="geometry" />
          </mxCell>
        </UserObject>
        <mxCell id="55" style="edgeStyle=elbowEdgeStyle;html=1;startArrow=none;endArrow=none;exitX=0.5;exitY=1;exitDx=0;exitDy=0;" parent="34" source="38" edge="1">
          <mxGeometry relative="1" as="geometry">
            <mxPoint x="380" y="109" as="targetPoint" />
            <Array as="points">
              <mxPoint x="380" y="109" />
            </Array>
          </mxGeometry>
        </mxCell>
        <UserObject label="Author Citation Count" treeRoot="1" id="38">
          <mxCell style="whiteSpace=wrap;html=1;align=center;treeFolding=1;treeMoving=1;newEdgeStyle={&quot;edgeStyle&quot;:&quot;elbowEdgeStyle&quot;,&quot;startArrow&quot;:&quot;none&quot;,&quot;endArrow&quot;:&quot;none&quot;};rounded=1;fontSize=14;" parent="34" vertex="1">
            <mxGeometry x="308.5" y="40" width="143" height="30" as="geometry" />
          </mxCell>
        </UserObject>
        <UserObject label="Co-Citation Analysis" treeRoot="1" id="40">
          <mxCell style="whiteSpace=wrap;html=1;align=center;treeFolding=1;treeMoving=1;newEdgeStyle={&quot;edgeStyle&quot;:&quot;elbowEdgeStyle&quot;,&quot;startArrow&quot;:&quot;none&quot;,&quot;endArrow&quot;:&quot;none&quot;};rounded=1;fontSize=14;" parent="34" vertex="1">
            <mxGeometry x="457" y="40" width="140" height="30" as="geometry" />
          </mxCell>
        </UserObject>
        <UserObject label="Bibliographic Coupling" treeRoot="1" id="42">
          <mxCell style="whiteSpace=wrap;html=1;align=center;treeFolding=1;treeMoving=1;newEdgeStyle={&quot;edgeStyle&quot;:&quot;elbowEdgeStyle&quot;,&quot;startArrow&quot;:&quot;none&quot;,&quot;endArrow&quot;:&quot;none&quot;};rounded=1;fontSize=14;" parent="34" vertex="1">
            <mxGeometry x="606" y="40" width="145" height="30" as="geometry" />
          </mxCell>
        </UserObject>
        <mxCell id="54" style="edgeStyle=elbowEdgeStyle;html=1;startArrow=none;endArrow=none;exitX=0.5;exitY=1;exitDx=0;exitDy=0;entryX=0.25;entryY=0;entryDx=0;entryDy=0;" parent="34" source="49" target="52" edge="1">
          <mxGeometry relative="1" as="geometry">
            <Array as="points">
              <mxPoint x="229" y="109" />
            </Array>
          </mxGeometry>
        </mxCell>
        <UserObject label="Paper Citation Count" treeRoot="1" id="49">
          <mxCell style="whiteSpace=wrap;html=1;align=center;treeFolding=1;treeMoving=1;newEdgeStyle={&quot;edgeStyle&quot;:&quot;elbowEdgeStyle&quot;,&quot;startArrow&quot;:&quot;none&quot;,&quot;endArrow&quot;:&quot;none&quot;};rounded=1;fontSize=14;" parent="34" vertex="1">
            <mxGeometry x="159" y="40" width="140" height="30" as="geometry" />
          </mxCell>
        </UserObject>
        <mxCell id="52" value="Feature Weighting" style="rounded=1;whiteSpace=wrap;html=1;fontSize=14;" parent="34" vertex="1">
          <mxGeometry x="220" y="110" width="320" height="40" as="geometry" />
        </mxCell>
        <mxCell id="57" style="edgeStyle=elbowEdgeStyle;html=1;startArrow=none;endArrow=none;exitX=0.5;exitY=1;exitDx=0;exitDy=0;entryX=1;entryY=0.5;entryDx=0;entryDy=0;" parent="34" source="42" target="52" edge="1">
          <mxGeometry relative="1" as="geometry">
            <mxPoint x="530" y="120" as="targetPoint" />
            <Array as="points">
              <mxPoint x="679" y="79" />
            </Array>
          </mxGeometry>
        </mxCell>
        <mxCell id="207" style="edgeStyle=elbowEdgeStyle;html=1;startArrow=none;endArrow=none;entryX=0.452;entryY=1.015;entryDx=0;entryDy=0;entryPerimeter=0;exitX=0.75;exitY=0;exitDx=0;exitDy=0;" parent="34" source="52" target="40" edge="1">
          <mxGeometry relative="1" as="geometry">
            <Array as="points">
              <mxPoint x="520" y="99" />
            </Array>
            <mxPoint x="239" y="80" as="sourcePoint" />
            <mxPoint x="297.5000000000001" y="120" as="targetPoint" />
          </mxGeometry>
        </mxCell>
        <mxCell id="183" value="" style="sketch=0;pointerEvents=1;shadow=0;dashed=0;html=1;strokeColor=none;fillColor=#505050;labelPosition=center;verticalLabelPosition=bottom;verticalAlign=top;outlineConnect=0;align=center;shape=mxgraph.office.concepts.documents;labelBackgroundColor=default;" parent="1" vertex="1">
          <mxGeometry x="760" y="-1640" width="80" height="98" as="geometry" />
        </mxCell>
        <mxCell id="194" style="edgeStyle=none;html=1;exitX=0;exitY=0.5;exitDx=0;exitDy=0;" parent="1" source="192" edge="1">
          <mxGeometry relative="1" as="geometry">
            <mxPoint x="609" y="-770" as="targetPoint" />
          </mxGeometry>
        </mxCell>
        <mxCell id="141" style="edgeStyle=orthogonalEdgeStyle;curved=1;html=1;dashed=1;strokeColor=default;exitX=0;exitY=0.5;exitDx=0;exitDy=0;entryX=0.75;entryY=0;entryDx=0;entryDy=0;" parent="1" source="97" target="129" edge="1">
          <mxGeometry relative="1" as="geometry">
            <Array as="points">
              <mxPoint x="898" y="-889" />
              <mxPoint x="898" y="-609" />
            </Array>
            <mxPoint x="910" y="-890" as="sourcePoint" />
            <mxPoint x="850" y="-609" as="targetPoint" />
          </mxGeometry>
        </mxCell>
        <mxCell id="140" style="edgeStyle=orthogonalEdgeStyle;curved=1;html=1;exitX=0.5;exitY=1;exitDx=0;exitDy=0;entryX=0.853;entryY=0;entryDx=0;entryDy=0;entryPerimeter=0;dashed=1;strokeColor=default;" parent="1" source="101" target="129" edge="1">
          <mxGeometry relative="1" as="geometry">
            <Array as="points">
              <mxPoint x="938" y="-710" />
            </Array>
          </mxGeometry>
        </mxCell>
        <mxCell id="132" style="edgeStyle=orthogonalEdgeStyle;html=1;dashed=1;strokeColor=default;curved=1;exitX=1;exitY=0.5;exitDx=0;exitDy=0;entryX=0.213;entryY=0.018;entryDx=0;entryDy=0;entryPerimeter=0;" parent="1" source="79" target="129" edge="1">
          <mxGeometry relative="1" as="geometry">
            <Array as="points">
              <mxPoint x="690" y="-889" />
              <mxPoint x="690" y="-610" />
              <mxPoint x="688" y="-610" />
            </Array>
            <mxPoint x="670" y="-870" as="sourcePoint" />
            <mxPoint x="730" y="-610" as="targetPoint" />
          </mxGeometry>
        </mxCell>
        <mxCell id="139" style="edgeStyle=orthogonalEdgeStyle;curved=1;html=1;exitX=0.5;exitY=1;exitDx=0;exitDy=0;dashed=1;strokeColor=default;" parent="1" source="83" edge="1">
          <mxGeometry relative="1" as="geometry">
            <mxPoint x="650" y="-609" as="targetPoint" />
            <Array as="points">
              <mxPoint x="650" y="-710" />
            </Array>
          </mxGeometry>
        </mxCell>
      </root>
    </mxGraphModel>
  </diagram>
</mxfile>
